<svg width="204" height="197" viewBox="0 0 204 197" fill="none" xmlns="http://www.w3.org/2000/svg">
<path fill-rule="evenodd" clip-rule="evenodd" d="M179.026 50.3567C171.142 36.7012 160.203 25.9093 147.571 18.3458L136.979 0C158.326 7.94618 177.14 23.089 189.419 44.3567C217.447 92.9034 200.814 154.98 152.267 183.008C152.141 183.081 152.016 183.153 151.89 183.225L148.891 178.029L148.834 178.062L106.28 104.357H69.4036L115.147 183.587C115.147 183.587 115.148 183.587 115.149 183.587L121.531 194.642C117.235 195.506 112.912 196.084 108.589 196.383L101.799 184.621C101.828 184.621 101.858 184.621 101.887 184.621L55.5472 104.357H12.474C13.7293 116.507 17.5056 128.595 24.0077 139.857C35.2509 159.33 52.7072 172.981 72.4271 179.749L80.9444 194.501C53.5895 188.829 28.6828 171.954 13.6154 145.857C-14.413 97.31 2.22029 35.2336 50.767 7.20512C54.0642 5.30148 57.4238 3.60386 60.8309 2.10826L63.5219 6.76922L63.7261 6.65137L155.86 166.232C191.142 139.346 201.793 89.7895 179.026 50.3567ZM56.3344 17.8487L99.3521 92.3574H12.0469C12.99 62.5882 28.7667 33.9668 56.3344 17.8487Z" fill="black"/>
</svg>
