<svg xmlns="http://www.w3.org/2000/svg" xmlns:xlink="http://www.w3.org/1999/xlink" version="1.1" id="Calque_1" x="0px" y="0px" viewBox="0 0 289.2 71.1" style="enable-background:new 0 0 289.2 71.1;" xml:space="preserve">
<style type="text/css">
	.st0{fill-rule:evenodd;clip-rule:evenodd;fill:#5587C6;}
	.st1{fill-rule:evenodd;clip-rule:evenodd;fill:#27305F;}
	.st2{fill:#27305F;}
	.st3{fill-rule:evenodd;clip-rule:evenodd;fill:#D8D8D8;}
	.st4{fill:#5587C6;}
</style>
<g>
	<path class="st0" d="M29.7,33.7c0,2-1.6,3.6-3.6,3.6H3.6c-2,0-3.6-1.6-3.6-3.6V11.1c0-2,1.6-3.6,3.6-3.6h22.6c2,0,3.6,1.6,3.6,3.6   L29.7,33.7L29.7,33.7z"/>
	<path class="st1" d="M29.7,67.6c0,2-1.6,3.6-3.6,3.6H3.6c-2,0-3.6-1.6-3.6-3.6V44.9c0-2,1.6-3.6,3.6-3.6h22.6c2,0,3.6,1.6,3.6,3.6   L29.7,67.6L29.7,67.6z"/>
	<path class="st0" d="M63.5,67.6c0,2-1.6,3.6-3.6,3.6H37.4c-2,0-3.6-1.6-3.6-3.6V44.9c0-2,1.6-3.6,3.6-3.6h22.6c2,0,3.6,1.6,3.6,3.6   V67.6z"/>
	<path class="st2" d="M99.9,29.1l4.2,2.2c-2.5,4.2-7.1,6.5-11.8,6.5c-6.8,0-13.6-4.8-13.6-13.5s6.9-13.6,13.6-13.6   c4.6,0,9.3,2.2,11.8,6.5l-4.2,2.2c-1.6-2.8-4.6-4.5-7.6-4.5c-4.5,0-8.9,3.7-8.9,9.3s4.3,9.2,8.9,9.2C95.3,33.5,98.3,31.9,99.9,29.1   L99.9,29.1z"/>
	<path class="st2" d="M135,25.9h-22.3c0.8,4.6,4.6,7.6,8.7,7.6c3.2,0,6.3-1.7,8-4.2l4.1,2.2c-2.6,4-7.3,6.2-12.1,6.2   c-6.8,0-13.6-4.8-13.6-13.5s6.9-13.6,13.6-13.6C129.7,10.7,135.8,17.1,135,25.9L135,25.9z M112.9,21.9H130   c-0.3-4.3-4.8-6.9-8.6-6.9C117.4,15,113.8,17.6,112.9,21.9L112.9,21.9z"/>
	<path class="st2" d="M161.3,10.9h4.8V37c0,8.5-6.9,12.9-13.6,12.9c-4.6,0-9.3-2.2-11.8-6.5l4.2-2.2c1.6,2.8,4.6,4.5,7.6,4.5   c4.5,0,8.8-3.3,8.8-8.6v-3.7c-2,2.9-5.4,4.6-8.8,4.6c-6.8,0-13.6-5-13.6-13.5s6.8-13.5,13.6-13.5c3.4,0,6.9,1.6,8.8,4.6V10.9   L161.3,10.9z M161.3,24.2c0-5.6-4.3-9.3-8.8-9.3c-4.5,0-8.8,3.7-8.8,9.3s4.3,9.3,8.8,9.3C157,33.5,161.3,29.8,161.3,24.2z"/>
	<path class="st2" d="M198.6,25.9h-22.3c0.8,4.6,4.6,7.6,8.7,7.6c3.2,0,6.3-1.7,8-4.2l4.1,2.2c-2.6,4-7.3,6.2-12.1,6.2   c-6.8,0-13.6-4.8-13.6-13.5s6.8-13.6,13.6-13.6C193.2,10.7,199.4,17.1,198.6,25.9L198.6,25.9z M176.4,21.9h17.2   c-0.3-4.3-4.8-6.9-8.6-6.9C181,15,177.4,17.6,176.4,21.9L176.4,21.9z"/>
	<path class="st2" d="M224.9,15.3V0h4.8v37.6h-4.8v-4.4c-2,2.9-5.4,4.6-8.8,4.6c-6.8,0-13.6-5-13.6-13.5s6.8-13.6,13.6-13.6   C219.5,10.7,223,12.3,224.9,15.3z M224.9,24.2c0-5.6-4.3-9.3-8.8-9.3c-4.5,0-8.9,3.7-8.9,9.3s4.3,9.3,8.9,9.3   C220.6,33.5,224.9,29.8,224.9,24.2z"/>
	<path class="st2" d="M236.6,3.1c0-1.5,1.3-2.7,2.9-2.7s2.9,1.2,2.9,2.7c0,1.5-1.3,2.7-2.9,2.7S236.6,4.6,236.6,3.1z M237.1,10.9   h4.8v26.8h-4.8V10.9z"/>
	<path class="st2" d="M289.2,20.7v16.9h-4.7V22.5c0-4.9-1.8-7.2-5.7-7.2c-3.9,0-6.4,2.7-7.1,6.3v16h-4.8V22.5c0-5-1.8-7.2-5.7-7.2   c-3.9,0-6.3,2.7-7.1,6.3v16h-4.8V10.8h4.8v4.9c1.3-2.9,4.2-5.3,9-5.1c3.9,0.2,6.8,2,8,5.5c1.3-3.1,4.5-5.8,9.6-5.5   C286,10.9,289.2,14.4,289.2,20.7L289.2,20.7z"/>
	<path class="st3" d="M63.5,33.7c0,2-1.6,3.6-3.6,3.6H37.4c-2,0-3.6-1.6-3.6-3.6V11.1c0-2,1.6-3.6,3.6-3.6h22.6c2,0,3.6,1.6,3.6,3.6   V33.7z"/>
	<path class="st4" d="M86.1,57.4c1.8,0,3.3,0.6,4.4,1.9c1.2,1.3,1.8,2.9,1.8,4.9c0,2-0.6,3.7-1.8,4.9c-1.2,1.3-2.7,1.9-4.4,1.9   c-1,0-2-0.2-2.7-0.7c-0.8-0.5-1.4-1.1-1.9-2v2.5h-2.7V53.1h2.7V60c0.4-0.8,1.1-1.4,1.9-1.9C84.1,57.7,85,57.4,86.1,57.4L86.1,57.4z    M88.3,67.5c0.8-0.8,1.2-1.9,1.2-3.3s-0.4-2.4-1.2-3.2s-1.7-1.2-2.8-1.2c-1.1,0-2,0.4-2.8,1.2c-0.8,0.8-1.2,1.9-1.2,3.2   s0.4,2.4,1.2,3.3c0.8,0.8,1.7,1.2,2.8,1.2C86.5,68.7,87.5,68.3,88.3,67.5L88.3,67.5z"/>
	<path class="st4" d="M104.2,57.7h2.7v13.2h-2.7v-2.1c-0.9,1.5-2.3,2.3-4.2,2.3c-1.5,0-2.7-0.5-3.7-1.5s-1.4-2.4-1.4-4.2v-7.8h2.7   v7.4c0,1.2,0.3,2.1,0.9,2.7c0.6,0.6,1.4,1,2.4,1c1,0,1.8-0.3,2.4-1c0.6-0.6,0.9-1.5,0.9-2.7L104.2,57.7L104.2,57.7z"/>
	<path class="st4" d="M110,61.5c0-1.1,0.5-2.1,1.4-2.8s2.2-1.2,3.7-1.2s2.8,0.4,3.7,1.1c0.9,0.8,1.4,1.8,1.4,3.1h-2.8   c-0.1-0.7-0.3-1.2-0.7-1.5c-0.4-0.4-1-0.6-1.7-0.6c-0.7,0-1.3,0.2-1.7,0.5c-0.4,0.3-0.6,0.8-0.6,1.3s0.3,1,0.8,1.3   c0.5,0.3,1.2,0.5,1.9,0.7c0.8,0.1,1.5,0.3,2.3,0.5c0.8,0.2,1.4,0.6,1.9,1.1c0.5,0.6,0.8,1.3,0.8,2.2c0,1.2-0.5,2.1-1.4,2.8   c-1,0.7-2.2,1.1-3.7,1.1c-1.5,0-2.8-0.4-3.7-1.1c-0.9-0.7-1.5-1.8-1.6-3.2h2.8c0.1,0.7,0.3,1.2,0.7,1.5c0.4,0.4,1,0.6,1.8,0.6   s1.3-0.2,1.8-0.5c0.4-0.3,0.7-0.8,0.7-1.3s-0.3-1-0.8-1.3s-1.2-0.5-1.9-0.7c-0.8-0.2-1.5-0.3-2.3-0.5c-0.8-0.2-1.4-0.6-1.9-1.1   C110.3,63,110,62.3,110,61.5L110,61.5z"/>
	<path class="st4" d="M126.6,54.2c0,0.5-0.2,0.9-0.5,1.2c-0.3,0.3-0.8,0.5-1.2,0.5c-0.5,0-0.9-0.2-1.2-0.5c-0.3-0.3-0.5-0.8-0.5-1.2   s0.2-0.9,0.5-1.2c0.3-0.3,0.8-0.5,1.2-0.5c0.5,0,0.9,0.2,1.2,0.5C126.4,53.2,126.6,53.7,126.6,54.2z M123.4,70.9V57.7h2.7v13.2   H123.4z"/>
	<path class="st4" d="M132.5,57.7v2.1c0.9-1.5,2.3-2.3,4.2-2.3c1.5,0,2.7,0.5,3.7,1.5c1,1,1.5,2.4,1.5,4.2v7.8h-2.7v-7.4   c0-1.2-0.3-2.1-0.9-2.7c-0.6-0.6-1.4-0.9-2.4-0.9s-1.8,0.3-2.4,0.9c-0.6,0.6-0.9,1.5-0.9,2.7v7.4h-2.7V57.7H132.5L132.5,57.7z"/>
	<path class="st4" d="M150.9,71.1c-1.9,0-3.5-0.6-4.7-1.9c-1.2-1.2-1.8-2.9-1.8-5s0.6-3.7,1.8-5c1.2-1.2,2.8-1.9,4.7-1.9   c1.9,0,3.5,0.6,4.7,1.8c1.2,1.2,1.8,2.8,1.8,4.7c0,0.5,0,0.9-0.1,1.3h-10.1c0.1,1.1,0.4,2,1.1,2.6c0.7,0.7,1.5,1,2.6,1   c1.5,0,2.5-0.6,3.2-1.8h3c-0.4,1.2-1.1,2.2-2.2,3C153.8,70.7,152.5,71.1,150.9,71.1z M153.6,60.7c-0.7-0.7-1.6-1-2.6-1   s-1.9,0.3-2.5,1c-0.7,0.7-1.1,1.5-1.2,2.6h7.4C154.6,62.2,154.3,61.4,153.6,60.7z"/>
	<path class="st4" d="M159.6,61.5c0-1.1,0.5-2.1,1.4-2.8s2.2-1.2,3.7-1.2s2.8,0.4,3.7,1.1c0.9,0.8,1.4,1.8,1.4,3.1h-2.8   c-0.1-0.7-0.3-1.2-0.7-1.5c-0.4-0.4-1-0.6-1.7-0.6c-0.7,0-1.3,0.2-1.7,0.5c-0.4,0.3-0.6,0.8-0.6,1.3s0.3,1,0.8,1.3   c0.5,0.3,1.2,0.5,1.9,0.7c0.8,0.1,1.5,0.3,2.3,0.5c0.8,0.2,1.4,0.6,1.9,1.1c0.5,0.6,0.8,1.3,0.8,2.2c0,1.2-0.5,2.1-1.4,2.8   c-1,0.7-2.2,1.1-3.7,1.1c-1.5,0-2.8-0.4-3.7-1.1c-0.9-0.7-1.5-1.8-1.6-3.2h2.8c0.1,0.7,0.3,1.2,0.7,1.5c0.4,0.4,1,0.6,1.8,0.6   s1.3-0.2,1.8-0.5c0.4-0.3,0.7-0.8,0.7-1.3s-0.3-1-0.8-1.3s-1.2-0.5-1.9-0.7c-0.8-0.2-1.5-0.3-2.3-0.5c-0.8-0.2-1.4-0.6-1.9-1.1   C159.9,63,159.6,62.3,159.6,61.5L159.6,61.5z"/>
	<path class="st4" d="M172.4,61.5c0-1.1,0.5-2.1,1.4-2.8s2.2-1.2,3.7-1.2c1.5,0,2.8,0.4,3.7,1.1c0.9,0.8,1.4,1.8,1.5,3.1h-2.8   c0-0.7-0.3-1.2-0.7-1.5c-0.4-0.4-1-0.6-1.7-0.6c-0.7,0-1.3,0.2-1.7,0.5c-0.4,0.3-0.6,0.8-0.6,1.3s0.3,1,0.8,1.3   c0.5,0.3,1.2,0.5,1.9,0.7s1.5,0.3,2.3,0.5s1.4,0.6,1.9,1.1c0.5,0.6,0.8,1.3,0.8,2.2c0,1.2-0.5,2.1-1.4,2.8c-1,0.7-2.2,1.1-3.7,1.1   c-1.5,0-2.8-0.4-3.7-1.1c-0.9-0.7-1.5-1.8-1.6-3.2h2.8c0.1,0.7,0.3,1.2,0.7,1.5c0.4,0.4,1,0.6,1.8,0.6s1.3-0.2,1.8-0.5   c0.4-0.3,0.7-0.8,0.7-1.3s-0.3-1-0.8-1.3s-1.2-0.5-1.9-0.7c-0.8-0.2-1.5-0.3-2.3-0.5c-0.8-0.2-1.4-0.6-1.9-1.1   C172.7,63,172.5,62.3,172.4,61.5L172.4,61.5z"/>
	<path class="st4" d="M192.5,61.5c0-1.1,0.5-2.1,1.4-2.8c1-0.8,2.2-1.2,3.7-1.2c1.5,0,2.8,0.4,3.7,1.1c0.9,0.8,1.4,1.8,1.5,3.1h-2.8   c0-0.7-0.3-1.2-0.7-1.5c-0.4-0.4-1-0.6-1.7-0.6s-1.3,0.2-1.7,0.5c-0.4,0.3-0.6,0.8-0.6,1.3s0.3,1,0.8,1.3c0.5,0.3,1.2,0.5,1.9,0.7   c0.8,0.1,1.5,0.3,2.3,0.5c0.8,0.2,1.4,0.6,1.9,1.1c0.5,0.6,0.8,1.3,0.8,2.2c0,1.2-0.5,2.1-1.4,2.8c-1,0.7-2.2,1.1-3.7,1.1   S195,70.7,194,70c-0.9-0.7-1.5-1.8-1.6-3.2h2.8c0.1,0.7,0.3,1.2,0.7,1.5c0.4,0.4,1,0.6,1.8,0.6s1.3-0.2,1.8-0.5   c0.4-0.3,0.7-0.8,0.7-1.3s-0.3-1-0.8-1.3s-1.2-0.5-1.9-0.7c-0.8-0.2-1.5-0.3-2.3-0.5c-0.8-0.2-1.4-0.6-1.9-1.1   C192.8,63,192.5,62.3,192.5,61.5L192.5,61.5z"/>
	<path class="st4" d="M211.5,71.1c-1.9,0-3.5-0.6-4.7-1.9s-1.8-2.9-1.8-5s0.6-3.7,1.8-5c1.2-1.2,2.8-1.9,4.7-1.9   c1.9,0,3.5,0.6,4.7,1.8c1.2,1.2,1.8,2.8,1.8,4.7c0,0.5,0,0.9-0.1,1.3h-10.1c0.1,1.1,0.4,2,1.1,2.6c0.7,0.7,1.5,1,2.6,1   c1.5,0,2.5-0.6,3.1-1.8h3c-0.4,1.2-1.1,2.2-2.2,3C214.4,70.7,213.1,71.1,211.5,71.1z M214.1,60.7c-0.7-0.7-1.6-1-2.6-1   c-1,0-1.8,0.3-2.5,1s-1.1,1.5-1.2,2.6h7.4C215.2,62.2,214.8,61.4,214.1,60.7z"/>
	<path class="st4" d="M223.5,57.7V60c0.8-1.7,2.2-2.5,4-2.5v2.8h-0.7c-1.1,0-1.9,0.3-2.4,0.8c-0.6,0.6-0.8,1.5-0.8,2.8v7h-2.7V57.7   L223.5,57.7L223.5,57.7z"/>
	<path class="st4" d="M228.4,57.7h2.9l3.8,10.8l3.8-10.8h3l-5,13.2h-3.3L228.4,57.7z"/>
	<path class="st4" d="M247,54.2c0,0.5-0.2,0.9-0.5,1.2c-0.3,0.3-0.8,0.5-1.2,0.5c-0.5,0-0.9-0.2-1.2-0.5s-0.5-0.8-0.5-1.2   s0.2-0.9,0.5-1.2c0.3-0.3,0.8-0.5,1.2-0.5c0.5,0,0.9,0.2,1.2,0.5C246.8,53.2,247,53.7,247,54.2z M243.8,70.9V57.7h2.7v13.2H243.8z"/>
	<path class="st4" d="M251.1,69.2c-1.2-1.2-1.8-2.9-1.8-5s0.6-3.7,1.8-5c1.2-1.2,2.8-1.9,4.7-1.9c1.6,0,2.9,0.4,4,1.1   c1,0.8,1.8,1.9,2.1,3.3h-3c-0.5-1.4-1.5-2.1-3.1-2.1c-1.1,0-2,0.4-2.7,1.2c-0.7,0.8-1,1.9-1,3.3s0.3,2.5,1,3.3   c0.7,0.8,1.6,1.2,2.7,1.2c1.6,0,2.6-0.7,3.1-2.1h3c-0.4,1.3-1.1,2.4-2.2,3.2c-1.1,0.8-2.4,1.2-3.9,1.2   C253.8,71.1,252.3,70.5,251.1,69.2L251.1,69.2z"/>
	<path class="st4" d="M270.2,71.1c-1.9,0-3.5-0.6-4.7-1.9c-1.2-1.2-1.8-2.9-1.8-5s0.6-3.7,1.8-5c1.2-1.2,2.8-1.9,4.7-1.9   c1.9,0,3.5,0.6,4.7,1.8c1.2,1.2,1.8,2.8,1.8,4.7c0,0.5,0,0.9-0.1,1.3h-10.1c0.1,1.1,0.4,2,1.1,2.6c0.7,0.7,1.5,1,2.6,1   c1.5,0,2.5-0.6,3.1-1.8h3c-0.4,1.2-1.1,2.2-2.2,3C273,70.7,271.7,71.1,270.2,71.1z M272.8,60.7c-0.7-0.7-1.6-1-2.6-1   s-1.9,0.3-2.5,1s-1.1,1.5-1.2,2.6h7.4C273.9,62.2,273.5,61.4,272.8,60.7z"/>
	<path class="st4" d="M278.8,61.5c0-1.1,0.5-2.1,1.4-2.8c1-0.8,2.2-1.2,3.7-1.2s2.8,0.4,3.7,1.1c0.9,0.8,1.4,1.8,1.4,3.1h-2.8   c0-0.7-0.3-1.2-0.7-1.5c-0.4-0.4-1-0.6-1.7-0.6s-1.3,0.2-1.7,0.5c-0.4,0.3-0.6,0.8-0.6,1.3s0.3,1,0.8,1.3c0.5,0.3,1.2,0.5,1.9,0.7   c0.8,0.1,1.5,0.3,2.3,0.5c0.8,0.2,1.4,0.6,1.9,1.1c0.5,0.6,0.8,1.3,0.8,2.2c0,1.2-0.5,2.1-1.5,2.8c-1,0.7-2.2,1.1-3.7,1.1   s-2.8-0.4-3.7-1.1c-0.9-0.7-1.5-1.8-1.6-3.2h2.8c0,0.7,0.3,1.2,0.7,1.5c0.4,0.4,1,0.6,1.8,0.6s1.3-0.2,1.8-0.5   c0.4-0.3,0.7-0.8,0.7-1.3s-0.3-1-0.8-1.3s-1.2-0.5-1.9-0.7c-0.8-0.2-1.5-0.3-2.3-0.5c-0.8-0.2-1.4-0.6-1.9-1.1   C279.1,63,278.9,62.3,278.8,61.5L278.8,61.5z"/>
</g>
</svg>