<svg version="1.1" id="Calque_1" xmlns="http://www.w3.org/2000/svg" xmlns:xlink="http://www.w3.org/1999/xlink" x="0px" y="0px" viewBox="0 0 85.4 76.2" style="enable-background:new 0 0 85.4 76.2;" xml:space="preserve">
<style type="text/css">
	.st0{fill:#FF2E63;}
	.st1{fill:#242F6D;}
</style>
<polygon class="st0" points="60.9,64 59.2,72.3 4.3,59.2 17.4,4.3 72.3,17.4 71.8,19.6 74.5,19.6 75.5,15.5 15.4,1.1 1.1,61.2
	61.1,75.6 63.8,64 "></polygon>
<g>
	<path class="st1" d="M25.5,28.8h3.8v17.3h-3.8V28.8z"></path>
	<path class="st1" d="M37,22c3.7,0,5.5,2.2,5.5,6v0.8H39v-1c0-1.7-0.7-2.3-1.8-2.3s-1.8,0.7-1.8,2.3c0,1.8,0.8,3,3.2,5.2
		c3.1,2.8,4.1,4.8,4.1,7.4c0,3.8-1.9,6-5.6,6s-5.6-2.2-5.6-6v-1.5h3.5v1.7c0,1.7,0.8,2.3,1.9,2.3c1.2,0,1.9-0.6,1.9-2.3
		c0-1.8-0.8-3-3.2-5.2c-3.1-2.8-4.1-4.8-4.1-7.4C31.4,24.1,33.3,22,37,22z"></path>
	<path class="st1" d="M55.5,37.2v3.2c0,3.8-1.9,6-5.6,6s-5.6-2.2-5.6-6V28c0-3.8,1.9-6,5.6-6s5.6,2.2,5.6,6v2.3H52v-2.6
		c0-1.7-0.8-2.3-1.9-2.3c-1.2,0-1.9,0.7-1.9,2.3v12.9c0,1.7,0.8,2.3,1.9,2.3c1.2,0,1.9-0.6,1.9-2.3v-3.4H55.5z"></path>
	<path class="st1" d="M57.4,28c0-3.8,2-6,5.7-6c3.7,0,5.7,2.2,5.7,6v12.4c0,3.8-2,6-5.7,6c-3.7,0-5.7-2.2-5.7-6V28z M61.2,40.6
		c0,1.7,0.8,2.3,1.9,2.3c1.2,0,1.9-0.7,1.9-2.3V27.7c0-1.7-0.8-2.3-1.9-2.3c-1.2,0-1.9,0.7-1.9,2.3V40.6z"></path>
	<path class="st1" d="M71.2,22.2h5.9c3.8,0,5.6,2.1,5.6,5.8v12c0,3.8-1.8,5.8-5.6,5.8h-5.9V22.2z M75,25.6v17h2.1
		c1.2,0,1.9-0.6,1.9-2.3V28c0-1.7-0.8-2.3-1.9-2.3L75,25.6z"></path>
</g>
<rect x="25.9" y="22" transform="matrix(0.2497 -0.9683 0.9683 0.2497 -2.3436 44.8812)" class="st0" width="3.8" height="3.8"></rect>
<g>
	<path class="st1" d="M26.3,48.1v5h1.5v0.8h-2.4v-5.9H26.3z"></path>
	<path class="st1" d="M28.3,48.1h0.9v0.8l-0.4,0.9h-0.4l0.2-0.8h-0.4V48.1z"></path>
	<path class="st1" d="M31.9,53.9l-0.2-1.1h-1.1l-0.2,1.1h-0.8l0.9-5.9h1.4l0.9,5.9H31.9z M31.6,52.1l-0.4-3l-0.4,3H31.6z"></path>
	<path class="st1" d="M34.1,48.1v5h1.5v0.8h-2.4v-5.9H34.1z"></path>
	<path class="st1" d="M38.2,48.1v0.8h-1v5h-0.9v-5h-1v-0.8H38.2z"></path>
	<path class="st1" d="M40.8,50.6v0.8h-1.3v1.7h1.6v0.8h-2.5v-5.9h2.5v0.8h-1.6v1.6H40.8z"></path>
	<path class="st1" d="M43.6,53.2v-0.9c0-0.5-0.2-0.7-0.6-0.7h-0.3v2.4h-0.9v-5.9h1.4c1,0,1.4,0.4,1.4,1.4v0.5c0,0.6-0.2,1-0.6,1.2
		c0.5,0.2,0.6,0.6,0.6,1.3v0.9c0,0.3,0,0.5,0.1,0.7h-0.9C43.6,53.8,43.6,53.7,43.6,53.2z M42.6,50.7H43c0.3,0,0.6-0.2,0.6-0.6v-0.6
		c0-0.4-0.1-0.6-0.5-0.6h-0.4V50.7z"></path>
	<path class="st1" d="M45.9,53.9h-0.8v-5.9h1.2l0.9,3.5v-3.5H48v5.9h-0.9l-1.1-4.3V53.9z"></path>
	<path class="st1" d="M50.7,53.9l-0.2-1.1h-1.1l-0.2,1.1h-0.8l0.9-5.9h1.4l0.9,5.9H50.7z M50.4,52.1l-0.4-3l-0.4,3H50.4z"></path>
	<path class="st1" d="M52.9,53.9h-0.8v-5.9h1.2l0.9,3.5v-3.5H55v5.9h-0.9l-1.1-4.3V53.9z"></path>
	<path class="st1" d="M58.4,52.5c0,0.9-0.5,1.5-1.4,1.5c-0.9,0-1.4-0.5-1.4-1.5v-3.1c0-0.9,0.5-1.5,1.4-1.5c0.9,0,1.4,0.5,1.4,1.5
		v0.6h-0.9v-0.6c0-0.4-0.2-0.6-0.5-0.6c-0.3,0-0.5,0.2-0.5,0.6v3.2c0,0.4,0.2,0.6,0.5,0.6c0.3,0,0.5-0.2,0.5-0.6v-0.8h0.9V52.5z"></path>
	<path class="st1" d="M61.1,50.6v0.8h-1.3v1.7h1.6v0.8h-2.5v-5.9h2.5v0.8h-1.6v1.6H61.1z"></path>
</g>
<g>
	<path class="st1" d="M26.2,61.5h-0.8v-5.9h1.2l0.9,3.5v-3.5h0.8v5.9h-0.9l-1.1-4.3V61.5z"></path>
	<path class="st1" d="M30.3,55.6c0.9,0,1.4,0.5,1.4,1.5v3.1c0,0.9-0.5,1.5-1.4,1.5s-1.4-0.5-1.4-1.5v-3.1
		C28.9,56.1,29.4,55.6,30.3,55.6z M30.3,60.7c0.3,0,0.5-0.2,0.5-0.6V57c0-0.4-0.2-0.6-0.5-0.6c-0.3,0-0.5,0.2-0.5,0.6v3.2
		C29.8,60.6,30,60.7,30.3,60.7z"></path>
	<path class="st1" d="M33.2,60.2c0,0.4,0.2,0.6,0.5,0.6c0.3,0,0.5-0.2,0.5-0.6v-4.5H35v4.5c0,0.9-0.5,1.5-1.4,1.5
		c-0.9,0-1.4-0.5-1.4-1.5v-4.5h0.9V60.2z"></path>
	<path class="st1" d="M37.7,55.6h0.8l-0.9,5.9h-1.4l-0.9-5.9h0.9l0.7,4.8L37.7,55.6z"></path>
	<path class="st1" d="M41.2,58.1V59h-1.3v1.7h1.6v0.8H39v-5.9h2.5v0.8h-1.6v1.6H41.2z"></path>
	<path class="st1" d="M43,55.6v5h1.5v0.8h-2.4v-5.9H43z"></path>
	<path class="st1" d="M45.9,55.6v5h1.5v0.8H45v-5.9H45.9z"></path>
	<path class="st1" d="M50,58.1V59h-1.3v1.7h1.6v0.8h-2.5v-5.9h2.5v0.8h-1.6v1.6H50z"></path>
	<path class="st1" d="M54.9,58.2v1.9c0,0.9-0.5,1.5-1.4,1.5c-0.9,0-1.4-0.5-1.4-1.5v-3.1c0-0.9,0.5-1.5,1.4-1.5
		c0.9,0,1.4,0.5,1.4,1.5v0.6H54V57c0-0.4-0.2-0.6-0.5-0.6c-0.3,0-0.5,0.2-0.5,0.6v3.2c0,0.4,0.2,0.6,0.5,0.6c0.3,0,0.5-0.2,0.5-0.6
		v-1.1h-0.4v-0.8H54.9z"></path>
	<path class="st1" d="M57.6,58.1V59h-1.3v1.7H58v0.8h-2.5v-5.9H58v0.8h-1.6v1.6H57.6z M56.8,55.3h-0.6l0.6-0.9h0.9L56.8,55.3z"></path>
	<path class="st1" d="M59.4,61.5h-0.8v-5.9h1.2l0.9,3.5v-3.5h0.8v5.9h-0.9l-1.1-4.3V61.5z"></path>
	<path class="st1" d="M64.3,58.1V59H63v1.7h1.6v0.8h-2.5v-5.9h2.5v0.8H63v1.6H64.3z M63.5,55.3h-0.6l0.6-0.9h0.9L63.5,55.3z"></path>
	<path class="st1" d="M67.1,60.8v-0.9c0-0.5-0.2-0.7-0.6-0.7h-0.3v2.4h-0.9v-5.9h1.4c1,0,1.4,0.4,1.4,1.4v0.5c0,0.6-0.2,1-0.6,1.2
		c0.5,0.2,0.6,0.6,0.6,1.3v0.9c0,0.3,0,0.5,0.1,0.7h-0.9C67.1,61.4,67.1,61.3,67.1,60.8z M66.1,58.3h0.4c0.3,0,0.6-0.2,0.6-0.6v-0.6
		c0-0.4-0.1-0.6-0.5-0.6h-0.4V58.3z"></path>
	<path class="st1" d="M70.6,61.5l-0.2-1.1h-1.1l-0.2,1.1h-0.8l0.9-5.9h1.4l0.9,5.9H70.6z M70.4,59.7l-0.4-3l-0.4,3H70.4z"></path>
	<path class="st1" d="M74.6,55.6v0.8h-1v5h-0.9v-5h-1v-0.8H74.6z"></path>
	<path class="st1" d="M75.9,55.6v5.9H75v-5.9H75.9z"></path>
	<path class="st1" d="M77.9,55.6c0.9,0,1.4,0.5,1.4,1.5v3.1c0,0.9-0.5,1.5-1.4,1.5c-0.9,0-1.4-0.5-1.4-1.5v-3.1
		C76.5,56.1,77,55.6,77.9,55.6z M77.9,60.7c0.3,0,0.5-0.2,0.5-0.6V57c0-0.4-0.2-0.6-0.5-0.6c-0.3,0-0.5,0.2-0.5,0.6v3.2
		C77.4,60.6,77.6,60.7,77.9,60.7z"></path>
	<path class="st1" d="M80.7,61.5h-0.8v-5.9h1.2l0.9,3.5v-3.5h0.8v5.9h-0.9l-1.1-4.3V61.5z"></path>
</g>
</svg>